<?xml version="1.0" encoding="UTF-8"?>
<!DOCTYPE svg PUBLIC "-//W3C//DTD SVG 1.1//EN" "http://www.w3.org/Graphics/SVG/1.1/DTD/svg11.dtd">
<svg xmlns="http://www.w3.org/2000/svg" version="1.1" width="325px" height="273px" style="shape-rendering:geometricPrecision; text-rendering:geometricPrecision; image-rendering:optimizeQuality; fill-rule:evenodd; clip-rule:evenodd" xmlns:xlink="http://www.w3.org/1999/xlink">
<g><path style="opacity:1" fill="#034aad" d="M -0.5,-0.5 C 107.833,-0.5 216.167,-0.5 324.5,-0.5C 324.5,90.5 324.5,181.5 324.5,272.5C 216.167,272.5 107.833,272.5 -0.5,272.5C -0.5,181.5 -0.5,90.5 -0.5,-0.5 Z"/></g>
<g><path style="opacity:1" fill="#fcfcfd" d="M 172.5,184.5 C 169.167,184.5 165.833,184.5 162.5,184.5C 162.5,189.167 162.5,193.833 162.5,198.5C 173.5,198.5 184.5,198.5 195.5,198.5C 207.683,210.593 222.016,219.093 238.5,224C 244.117,225.052 249.784,225.718 255.5,226C 256.624,226.249 257.624,226.749 258.5,227.5C 258.333,227.833 258.167,228.167 258,228.5C 244.408,235.616 229.908,238.116 214.5,236C 201.417,234.084 189.417,229.417 178.5,222C 170.667,215.5 163.5,208.333 157,200.5C 142.752,179.672 128.752,158.672 115,137.5C 112.974,133.974 110.141,131.307 106.5,129.5C 105.614,128.675 105.281,127.675 105.5,126.5C 132.364,127.135 143.864,114.135 140,87.5C 137.659,79.1595 132.493,73.3262 124.5,70C 116.236,68.6301 107.903,68.1301 99.5,68.5C 99.3333,106.501 99.5,144.501 100,182.5C 101.987,189.809 106.821,193.309 114.5,193C 114.957,193.414 115.291,193.914 115.5,194.5C 95.5111,195.5 75.5111,195.833 55.5,195.5C 55.5,194.5 55.5,193.5 55.5,192.5C 62.7642,193.4 67.5975,190.4 70,183.5C 70.6667,146.167 70.6667,108.833 70,71.5C 67.6099,64.0456 62.4432,60.7123 54.5,61.5C 54.5,60.5 54.5,59.5 54.5,58.5C 82.5299,58.0705 110.53,58.5705 138.5,60C 164.333,64.4861 175.5,79.6528 172,105.5C 166.61,122.288 155.11,131.621 137.5,133.5C 144.739,138.234 151.239,143.901 157,150.5C 162.667,157.5 168.333,164.5 174,171.5C 175.691,175.417 175.857,179.417 174.5,183.5C 173.817,183.863 173.15,184.196 172.5,184.5 Z"/></g>
<g><path style="opacity:1" fill="#c5d7ed" d="M 213.5,60.5 C 198.485,60.1673 183.485,60.5007 168.5,61.5C 170.291,62.1698 171.958,62.8365 173.5,63.5C 171.5,63.5 169.5,63.5 167.5,63.5C 167.5,62.1667 167.5,60.8333 167.5,59.5C 183.009,59.1705 198.342,59.5038 213.5,60.5 Z"/></g>
<g><path style="opacity:1" fill="#c2d6ec" d="M 279.5,60.5 C 267.814,60.1678 256.148,60.5011 244.5,61.5C 246.631,62.1687 248.631,62.8354 250.5,63.5C 248.167,63.5 245.833,63.5 243.5,63.5C 243.5,62.1667 243.5,60.8333 243.5,59.5C 255.678,59.1716 267.678,59.5049 279.5,60.5 Z"/></g>
<g><path style="opacity:1" fill="#f8f9fb" d="M 213.5,60.5 C 214.774,61.1894 214.774,62.0228 213.5,63C 210.833,63.3333 208.167,63.6667 205.5,64C 203.667,64.5 202.5,65.6667 202,67.5C 201.333,87.8333 201.333,108.167 202,128.5C 219.667,108.833 237.333,89.1667 255,69.5C 256.957,65.2624 255.457,63.2624 250.5,63.5C 248.631,62.8354 246.631,62.1687 244.5,61.5C 256.148,60.5011 267.814,60.1678 279.5,60.5C 279.5,61.1667 279.5,61.8333 279.5,62.5C 275.21,62.1977 271.21,62.8643 267.5,64.5C 266.078,64.7086 264.745,65.2086 263.5,66C 245.413,84.7488 228.079,104.082 211.5,124C 217.848,135.355 226.848,138.355 238.5,133C 249.124,148.414 259.624,163.914 270,179.5C 273.251,183.422 277.084,186.588 281.5,189C 283.81,189.497 286.143,189.663 288.5,189.5C 288.5,190.833 288.5,192.167 288.5,193.5C 279.494,193.666 270.494,193.5 261.5,193C 254.182,190.021 248.349,185.187 244,178.5C 232,161.167 220,143.833 208,126.5C 206.374,129.128 204.374,131.461 202,133.5C 201.333,150.5 201.333,167.5 202,184.5C 202.583,186.002 203.416,187.335 204.5,188.5C 207.443,189.244 210.443,189.744 213.5,190C 214.451,190.718 214.617,191.551 214,192.5C 198.908,193.657 183.741,193.824 168.5,193C 167.663,191.989 167.33,190.822 167.5,189.5C 170.518,189.665 173.518,189.498 176.5,189C 177.381,188.292 178.047,187.458 178.5,186.5C 179.268,185.737 179.768,184.737 180,183.5C 180.831,144.664 180.665,105.998 179.5,67.5C 178.535,64.6803 176.535,63.3469 173.5,63.5C 171.958,62.8365 170.291,62.1698 168.5,61.5C 183.485,60.5007 198.485,60.1673 213.5,60.5 Z"/></g>
<g><path style="opacity:1" fill="#87a4d4" d="M 279.5,62.5 C 275.705,63.6167 271.705,64.2833 267.5,64.5C 271.21,62.8643 275.21,62.1977 279.5,62.5 Z"/></g>
<g><path style="opacity:1" fill="#0964d4" d="M 179.5,67.5 C 180.665,105.998 180.831,144.664 180,183.5C 179.768,184.737 179.268,185.737 178.5,186.5C 179.477,146.857 179.81,107.191 179.5,67.5 Z"/></g>
<g><path style="opacity:1" fill="#3361ae" d="M 172.5,184.5 C 169.713,185.477 166.713,185.81 163.5,185.5C 163.5,189.5 163.5,193.5 163.5,197.5C 174.346,197.172 185.013,197.506 195.5,198.5C 184.5,198.5 173.5,198.5 162.5,198.5C 162.5,193.833 162.5,189.167 162.5,184.5C 165.833,184.5 169.167,184.5 172.5,184.5 Z"/></g>
</svg>
